<svg width="18" height="31" viewBox="0 0 18 31" fill="none" xmlns="http://www.w3.org/2000/svg">
<path d="M10.1572 20.3139L10.1572 21.3296L11.1729 21.3296L11.1729 20.3139L10.1572 20.3139Z" fill="white"/>
<path d="M12.1885 20.3139L12.1885 21.3296L13.2042 21.3296L13.2042 20.3139L12.1885 20.3139Z" fill="white"/>
<path d="M14.2197 20.3139L14.2197 21.3296L15.2354 21.3296L15.2354 20.3139L14.2197 20.3139Z" fill="white"/>
<path d="M8.12598 20.3139L8.12598 21.3296L9.14166 21.3296L9.14166 20.3139L8.12598 20.3139Z" fill="white"/>
<path d="M6.09375 20.3139L6.09375 21.3296L7.10944 21.3296L7.10944 20.3139L6.09375 20.3139Z" fill="white"/>
<path d="M4.0625 20.3139L4.0625 21.3296L5.07819 21.3296L5.07819 20.3139L4.0625 20.3139Z" fill="white"/>
<path d="M2.03125 20.3139L2.03125 21.3296L3.04694 21.3296L3.04694 20.3139L2.03125 20.3139Z" fill="white"/>
<path d="M2.03125 27.4235L2.03125 28.4392L3.04694 28.4392L3.04694 27.4235L2.03125 27.4235Z" fill="white"/>
<path d="M2.03125 2.03143L2.03125 3.04712L3.04694 3.04712L3.04694 2.03143L2.03125 2.03143Z" fill="white"/>
<path d="M14.2197 2.03143L14.2197 3.04712L15.2354 3.04712L15.2354 2.03143L14.2197 2.03143Z" fill="white"/>
<path d="M14.2197 27.4235L14.2197 28.4392L15.2354 28.4392L15.2354 27.4235L14.2197 27.4235Z" fill="white"/>
<path d="M6.09411 0.507965C6.09411 0.227508 5.86673 0.000121814 5.58627 0.000121826L0.507842 0.000122048C0.227385 0.00012206 -1.32197e-06 0.227509 -1.30971e-06 0.507965L-2.21985e-08 29.9629C-9.93939e-09 30.2433 0.227387 30.4707 0.507843 30.4707L5.58627 30.4707C5.86673 30.4707 6.09412 30.2433 6.09412 29.9629C6.09412 28.5605 7.23099 27.4236 8.63333 27.4236C10.0357 27.4236 11.1725 28.5605 11.1725 29.9629C11.1725 30.2433 11.3999 30.4707 11.6804 30.4707L16.7588 30.4707C17.0393 30.4707 17.2667 30.2433 17.2667 29.9629L17.2667 0.507964C17.2667 0.227508 17.0393 0.000121326 16.7588 0.000121338L11.6804 0.00012156C11.3999 0.000121572 11.1725 0.227508 11.1725 0.507965C11.1725 1.91031 10.0357 3.04718 8.63333 3.04718C7.23098 3.04718 6.09411 1.91031 6.09411 0.507965ZM9.13838 4.0296C10.7006 3.80539 11.928 2.578 12.1522 1.01581L16.251 1.01581L16.251 29.455L12.1522 29.455C11.8732 27.5116 10.0717 26.1623 8.12828 26.4412C6.56609 26.6654 5.3387 27.8928 5.11449 29.455L1.01569 29.455L1.01568 1.01581L5.11449 1.01581C5.39342 2.9592 7.19493 4.30854 9.13838 4.0296Z" fill="white"/>
<path d="M3.55469 15.2355C3.55469 16.3574 4.46417 17.2668 5.58606 17.2668C6.70795 17.2668 7.61743 16.3574 7.61743 15.2355C7.61743 14.1136 6.70795 13.2041 5.58606 13.2041C4.46417 13.2041 3.55469 14.1136 3.55469 15.2355ZM6.60175 15.2355C6.60175 15.7964 6.14704 16.2512 5.58606 16.2512C5.02508 16.2512 4.57037 15.7964 4.57037 15.2355C4.57037 14.6745 5.02508 14.2198 5.58606 14.2198C6.14704 14.2198 6.60175 14.6745 6.60175 15.2355Z" fill="white"/>
<path d="M9.64941 9.14124C9.64941 10.2631 10.5589 11.1726 11.6808 11.1726C12.8027 11.1726 13.7122 10.2631 13.7122 9.14124C13.7122 8.01935 12.8027 7.10986 11.6808 7.10986C10.5589 7.10986 9.64941 8.01935 9.64941 9.14124ZM12.6965 9.14124C12.6965 9.70221 12.2418 10.1569 11.6808 10.1569C11.1198 10.1569 10.6651 9.70221 10.6651 9.14124C10.6651 8.58026 11.1198 8.12555 11.6808 8.12555C12.2418 8.12555 12.6965 8.58026 12.6965 9.14124Z" fill="white"/>
<path d="M4.20966 8.4848L12.335 16.6101L13.0532 15.8919L4.92785 7.76661L4.20966 8.4848Z" fill="white"/>
</svg>
