<svg width="27" height="27" viewBox="0 0 27 27" fill="none" xmlns="http://www.w3.org/2000/svg">
<path d="M16.0703 10.8989C15.8743 10.9009 15.6809 10.9434 15.5023 11.0239H12.3083L12.0823 10.2709H16.5083C16.6988 10.2736 16.8852 10.2146 17.0395 10.1027C17.1938 9.99074 17.3077 9.83189 17.3643 9.64986L18.3833 6.07786C18.4194 5.95269 18.4245 5.82058 18.398 5.69301C18.3715 5.56544 18.3143 5.44627 18.2313 5.34586C18.1466 5.24207 18.0398 5.15849 17.9187 5.10123C17.7976 5.04396 17.6652 5.01446 17.5312 5.01486H10.5903C10.5643 5.01486 10.5413 5.02985 10.5153 5.03085L10.1673 3.86785C10.1324 3.76023 10.064 3.66661 9.97201 3.60073C9.88004 3.53486 9.76937 3.5002 9.65625 3.50186H8.18625C8.04987 3.49861 7.91771 3.5493 7.81848 3.64292C7.71925 3.73653 7.66095 3.86552 7.65625 4.00186C7.65966 4.13907 7.71739 4.26933 7.81676 4.36402C7.91614 4.4587 8.04903 4.51008 8.18625 4.50686H9.25525L11.1943 10.9749C10.9239 11.0487 10.6847 11.208 10.5122 11.429C10.3397 11.6499 10.2433 11.9206 10.2373 12.2009C10.2454 12.5565 10.3943 12.8945 10.6514 13.1404C10.9084 13.3864 11.2526 13.5204 11.6083 13.5129C11.9635 13.5212 12.3075 13.3884 12.565 13.1437C12.8225 12.8989 12.9726 12.562 12.9823 12.2069C12.974 12.1477 12.9616 12.0893 12.9453 12.0319H14.7272C14.7109 12.0893 14.6986 12.1477 14.6903 12.2069C14.6999 12.562 14.85 12.8989 15.1075 13.1437C15.365 13.3884 15.7091 13.5212 16.0643 13.5129C16.4195 13.5212 16.7635 13.3884 17.021 13.1437C17.2785 12.8989 17.4286 12.562 17.4383 12.2069C17.4299 11.8521 17.2811 11.5152 17.0247 11.27C16.7682 11.0248 16.425 10.8913 16.0703 10.8989ZM17.3023 6.02586L16.3783 9.26286H11.7982L10.8242 6.02586H17.3023ZM11.6133 12.5059C11.573 12.5068 11.5329 12.4998 11.4954 12.4852C11.4578 12.4706 11.4235 12.4487 11.3945 12.4209C11.3654 12.393 11.3421 12.3596 11.3259 12.3227C11.3098 12.2859 11.301 12.2461 11.3003 12.2059C11.301 12.1656 11.3098 12.1259 11.3259 12.089C11.3421 12.0521 11.3654 12.0187 11.3945 11.9909C11.4235 11.963 11.4578 11.9411 11.4954 11.9265C11.5329 11.912 11.573 11.9049 11.6133 11.9059C11.6945 11.9042 11.7731 11.9349 11.8318 11.9912C11.8904 12.0474 11.9244 12.1246 11.9263 12.2059C11.9252 12.2464 11.9161 12.2864 11.8996 12.3235C11.883 12.3605 11.8592 12.3939 11.8297 12.4217C11.8001 12.4495 11.7653 12.4712 11.7273 12.4855C11.6893 12.4997 11.6488 12.5063 11.6083 12.5049L11.6133 12.5059ZM16.0703 12.5059C15.989 12.5075 15.9104 12.4768 15.8517 12.4206C15.7931 12.3643 15.7591 12.2871 15.7573 12.2059C15.7591 12.1246 15.7931 12.0474 15.8517 11.9912C15.9104 11.9349 15.989 11.9042 16.0703 11.9059C16.1105 11.9049 16.1506 11.912 16.1881 11.9265C16.2257 11.9411 16.26 11.963 16.289 11.9909C16.3181 12.0187 16.3414 12.0521 16.3576 12.089C16.3737 12.1259 16.3825 12.1656 16.3833 12.2059C16.3823 12.246 16.3735 12.2857 16.3573 12.3224C16.3411 12.3592 16.3178 12.3924 16.2887 12.4202C16.2596 12.448 16.2254 12.4697 16.1879 12.4843C16.1504 12.4988 16.1104 12.5058 16.0703 12.5049V12.5059Z" fill="white"/>
<path d="M14.8062 17.4168C14.8062 17.6958 14.5002 17.9218 14.1222 17.9218H5.84415C5.46615 17.9218 5.16016 17.6958 5.16016 17.4168C5.16016 17.1378 5.46615 16.9168 5.84415 16.9168H14.1212C14.4992 16.9128 14.8062 17.1398 14.8062 17.4168Z" fill="white"/>
<path d="M20.9131 17.4168C20.9131 17.6958 20.6071 17.9218 20.2301 17.9218H18.0551C17.6771 17.9218 17.3711 17.6958 17.3711 17.4168C17.3711 17.1378 17.6771 16.9168 18.0551 16.9168H20.2261C20.6071 16.9128 20.9131 17.1398 20.9131 17.4168Z" fill="white"/>
<path d="M14.8062 19.8458C14.8062 20.1238 14.5002 20.3458 14.1222 20.3458H5.84415C5.46615 20.3458 5.16016 20.1198 5.16016 19.8458C5.16016 19.5718 5.46615 19.3408 5.84415 19.3408H14.1212C14.4992 19.3408 14.8062 19.5658 14.8062 19.8458Z" fill="white"/>
<path d="M20.9131 19.8458C20.9131 20.1238 20.6071 20.3458 20.2301 20.3458H18.0551C17.6771 20.3458 17.3711 20.1198 17.3711 19.8458C17.3711 19.5718 17.6771 19.3408 18.0551 19.3408H20.2261C20.6071 19.3408 20.9131 19.5658 20.9131 19.8458Z" fill="white"/>
<path d="M14.8062 22.0838C14.8062 22.3618 14.5002 22.5838 14.1222 22.5838H5.84415C5.46615 22.5838 5.16016 22.3578 5.16016 22.0838C5.16016 21.8098 5.46615 21.5838 5.84415 21.5838H14.1212C14.4992 21.5798 14.8062 21.8048 14.8062 22.0838Z" fill="white"/>
<path d="M20.9131 22.0838C20.9131 22.3618 20.6071 22.5838 20.2301 22.5838H18.0551C17.6771 22.5838 17.3711 22.3578 17.3711 22.0838C17.3711 21.8098 17.6771 21.5838 18.0551 21.5838H20.2261C20.6071 21.5798 20.9131 21.8048 20.9131 22.0838Z" fill="white"/>
<path d="M25.857 1.17485L24.557 0.129852C24.4117 0.04877 24.2487 0.0043045 24.0823 0.000297184C23.916 -0.00371014 23.7511 0.0328615 23.602 0.106852L22.137 0.885852L20.937 0.132852C20.7913 0.0508699 20.6278 0.00565367 20.4607 0.00112307C20.2936 -0.00340754 20.1279 0.0328842 19.978 0.106852L18.514 0.885852L17.314 0.132852C17.1684 0.0506214 17.0049 0.00526205 16.8377 0.000730152C16.6706 -0.00380175 16.5048 0.0326315 16.355 0.106852L14.891 0.885852L13.691 0.132852C13.5455 0.0507917 13.3822 0.00552575 13.2152 0.00099432C13.0483 -0.00353711 12.8827 0.0328032 12.733 0.106852L11.265 0.885852L10.065 0.132852C9.91965 0.0509617 9.7565 0.00578946 9.58972 0.00125849C9.42295 -0.00327248 9.25759 0.0329747 9.108 0.106852L7.64301 0.885852L6.443 0.132852C6.29744 0.0510395 6.13413 0.00591738 5.96722 0.00138723C5.8003 -0.00314291 5.63479 0.0330553 5.485 0.106852L4.02 0.885852L2.82 0.132852C2.67464 0.0509617 2.5115 0.00578946 2.34473 0.00125849C2.17795 -0.00327248 2.01259 0.0329747 1.86301 0.106852L0.263 1.15185C0.190691 1.18131 0.127899 1.23011 0.0815048 1.29291C0.0351106 1.35571 0.00690697 1.43008 0 1.50785V25.4199C0.00659623 25.4981 0.0346407 25.573 0.0810394 25.6363C0.127438 25.6997 0.190395 25.749 0.263 25.7789L1.86301 26.8239C2.00508 26.8951 2.16209 26.9314 2.32101 26.9299C2.49672 26.9323 2.66971 26.8862 2.82101 26.7969L4.021 26.0439L5.485 26.8229C5.62708 26.8941 5.78408 26.9304 5.943 26.9289C6.11872 26.9313 6.29171 26.8853 6.443 26.7959L7.64301 26.0429L9.107 26.8219C9.24914 26.894 9.40662 26.9307 9.566 26.9289C9.74172 26.9313 9.91471 26.8853 10.066 26.7959L11.266 26.0429L12.731 26.8219C12.8731 26.8931 13.0301 26.9294 13.189 26.9279C13.3647 26.9303 13.5377 26.8843 13.689 26.7949L14.889 26.0419L16.353 26.8209C16.4951 26.8921 16.6521 26.9284 16.811 26.9269C16.9867 26.9293 17.1597 26.8833 17.311 26.7939L18.511 26.0408L19.975 26.8199C20.1168 26.8921 20.2739 26.9288 20.433 26.9269C20.6087 26.9293 20.7817 26.8833 20.933 26.7939L22.133 26.0408L23.597 26.8199C23.7394 26.8912 23.8967 26.9276 24.056 26.9259C24.2317 26.9279 24.4046 26.8819 24.556 26.7929L25.856 25.7479C25.9175 25.7157 25.9698 25.6683 26.0078 25.6102C26.0458 25.552 26.0682 25.4851 26.073 25.4158V1.50685C26.0699 1.43727 26.0483 1.36977 26.0103 1.31139C25.9723 1.25301 25.9194 1.20586 25.857 1.17485ZM24.999 25.2249L24.018 25.8419L22.554 25.0629C22.5215 25.0491 22.4881 25.0378 22.454 25.0289C22.4152 25.0124 22.3755 24.9984 22.335 24.9869C22.2843 24.976 22.2328 24.9694 22.181 24.9669C22.144 24.9669 22.108 24.9599 22.07 24.9599C22.0163 24.9618 21.9628 24.9678 21.91 24.9778C21.875 24.9848 21.838 24.9888 21.804 24.9979C21.7578 25.013 21.713 25.0321 21.67 25.0549C21.6425 25.0636 21.6157 25.0746 21.59 25.0879L20.39 25.8409L18.925 25.0619C18.8926 25.0479 18.8592 25.0365 18.825 25.0279C18.7867 25.0114 18.7473 24.9977 18.707 24.9869C18.6556 24.9761 18.6034 24.9694 18.551 24.9669C18.513 24.9669 18.478 24.9599 18.44 24.9599C18.3863 24.9618 18.3328 24.9678 18.28 24.9778C18.243 24.9848 18.207 24.9899 18.172 24.9979C18.1262 25.0133 18.0818 25.0324 18.039 25.0549C18.0115 25.0636 17.9847 25.0746 17.959 25.0879L16.759 25.8399L15.295 25.0609C15.2639 25.0482 15.2322 25.0372 15.2 25.0279C15.1613 25.0116 15.1215 24.9979 15.081 24.9869C15.0303 24.9756 14.9788 24.9682 14.927 24.9649C14.889 24.9649 14.854 24.9579 14.816 24.9579C14.7623 24.9601 14.7088 24.9664 14.656 24.9769C14.62 24.9814 14.5843 24.9881 14.549 24.9969C14.5026 25.011 14.4577 25.0298 14.415 25.0529C14.388 25.0625 14.3616 25.0739 14.336 25.0869L13.136 25.8389L11.672 25.0599C11.6409 25.0472 11.6092 25.0362 11.577 25.0268C11.5386 25.0098 11.4988 24.9961 11.458 24.9859C11.4066 24.9745 11.3545 24.9672 11.302 24.9639C11.264 24.9639 11.227 24.9569 11.191 24.9569C11.1373 24.959 11.0838 24.9654 11.031 24.9759C10.993 24.9829 10.958 24.9869 10.923 24.9959C10.876 25.0106 10.8305 25.0297 10.787 25.0529C10.7604 25.0616 10.7347 25.0727 10.71 25.0859L9.51 25.8379L8.04601 25.0589C8.01601 25.0439 7.98101 25.0389 7.94601 25.0259C7.90803 25.0085 7.86852 24.9948 7.828 24.9848C7.77668 24.9733 7.72451 24.966 7.672 24.9629C7.635 24.9629 7.599 24.9559 7.562 24.9559C7.50826 24.958 7.45476 24.9644 7.402 24.9749C7.36565 24.9794 7.32959 24.9861 7.29401 24.9949C7.2476 25.009 7.20271 25.0278 7.16 25.0509C7.13266 25.0605 7.10595 25.0719 7.08 25.0849L5.88 25.8369L4.415 25.0579C4.384 25.045 4.35228 25.034 4.32 25.0249C4.28175 25.0074 4.2419 24.9936 4.201 24.9839C4.14966 24.9724 4.0975 24.9651 4.04501 24.9619C4.00701 24.9619 3.97201 24.9549 3.93401 24.9549C3.88027 24.9572 3.82678 24.9635 3.774 24.9739C3.737 24.9809 3.701 24.9849 3.666 24.9939C3.62085 25.0092 3.57704 25.0283 3.535 25.0509C3.50715 25.0596 3.48006 25.0707 3.454 25.0839L2.25401 25.8369L1.054 25.1989V1.72485L2.25401 1.08685L3.454 1.83885C3.49571 1.86108 3.5392 1.87982 3.58401 1.89485C3.61387 1.90938 3.64459 1.92207 3.676 1.93285C3.75429 1.95221 3.8344 1.96327 3.915 1.96585C3.93 1.96585 3.943 1.97085 3.957 1.97085C3.97099 1.97159 3.98501 1.97159 3.999 1.97085C4.07112 1.96904 4.14285 1.95965 4.21301 1.94285C4.241 1.93485 4.26601 1.92285 4.29301 1.91285C4.33339 1.90159 4.37284 1.88721 4.411 1.86985L5.87601 1.09085L7.076 1.84385C7.11771 1.86609 7.16119 1.88482 7.206 1.89985C7.237 1.91085 7.264 1.92785 7.298 1.93785C7.37645 1.95826 7.45697 1.96967 7.538 1.97185C7.552 1.97185 7.565 1.97685 7.579 1.97685H7.58401C7.59801 1.97685 7.61101 1.97685 7.62601 1.97685C7.6978 1.97507 7.76919 1.96568 7.839 1.94885C7.867 1.94085 7.89201 1.92885 7.91901 1.91885C7.95964 1.90735 7.9994 1.89298 8.038 1.87585L9.50201 1.09685L10.702 1.84985C10.7425 1.87188 10.785 1.88996 10.829 1.90385C10.862 1.91585 10.889 1.93385 10.922 1.94285C11.0005 1.96284 11.081 1.97391 11.162 1.97585C11.1759 1.97827 11.1899 1.97994 11.204 1.98085C11.219 1.98085 11.231 1.98085 11.246 1.97585C11.3178 1.97406 11.3892 1.96467 11.459 1.94785C11.4866 1.93964 11.5137 1.92962 11.54 1.91785C11.58 1.90588 11.6194 1.89186 11.658 1.87585L13.122 1.09685L14.322 1.84885C14.3637 1.87109 14.4072 1.88982 14.452 1.90485C14.4819 1.91938 14.5126 1.93207 14.544 1.94285C14.6217 1.96387 14.7016 1.97529 14.782 1.97685C14.797 1.97685 14.809 1.98185 14.824 1.98185C14.839 1.98185 14.851 1.98185 14.866 1.98185C14.9379 1.97939 15.0093 1.96934 15.079 1.95185C15.1068 1.94408 15.1339 1.93405 15.16 1.92185C15.2003 1.91071 15.2397 1.89667 15.278 1.87985L16.742 1.10085L17.942 1.85385C17.9836 1.87511 18.0267 1.89316 18.071 1.90785C18.1012 1.92236 18.1323 1.93505 18.164 1.94585C18.242 1.96686 18.3222 1.97828 18.403 1.97985C18.418 1.97985 18.431 1.98485 18.445 1.98485C18.459 1.98559 18.473 1.98559 18.487 1.98485C18.5591 1.98303 18.6308 1.97365 18.701 1.95685C18.729 1.94885 18.754 1.93685 18.781 1.92685C18.8214 1.91559 18.8608 1.90121 18.899 1.88385L20.364 1.10485L21.564 1.85785C21.5908 1.87116 21.6186 1.88253 21.647 1.89185C21.6883 1.91446 21.7319 1.93257 21.777 1.94585C21.8149 1.95572 21.8533 1.9634 21.892 1.96885C21.9422 1.97835 21.993 1.98437 22.044 1.98685C22.0825 1.98625 22.1208 1.98358 22.159 1.97885C22.2105 1.97636 22.2616 1.96967 22.312 1.95885C22.3523 1.94828 22.3918 1.93457 22.43 1.91785C22.4641 1.90894 22.4975 1.89758 22.53 1.88385L23.994 1.10485L24.975 1.72185V25.2249H24.999Z" fill="white"/>
</svg>
