<svg width="28" height="30" viewBox="0 0 28 30" fill="none" xmlns="http://www.w3.org/2000/svg">
<path d="M10.9009 0.309086C10.2724 0.308297 9.64998 0.431453 9.06916 0.671504C8.48833 0.911556 7.96055 1.26379 7.51601 1.70805C7.07147 2.15231 6.7189 2.67988 6.47849 3.26055C6.23807 3.84122 6.11453 4.46361 6.11492 5.09209V8.50909H2.36192C2.2765 8.50871 2.19403 8.54032 2.13074 8.59769C2.06744 8.65506 2.02791 8.73404 2.01992 8.81909L0.314922 29.3181C0.312504 29.3652 0.319463 29.4123 0.335396 29.4566C0.351329 29.501 0.375918 29.5418 0.407735 29.5766C0.439552 29.6114 0.477964 29.6395 0.520741 29.6593C0.563517 29.6792 0.609807 29.6903 0.656922 29.6921H21.1479C21.195 29.6902 21.2412 29.6789 21.2839 29.6591C21.3266 29.6392 21.365 29.6111 21.3968 29.5763C21.4286 29.5415 21.4532 29.5008 21.4692 29.4565C21.4852 29.4122 21.4922 29.3651 21.4899 29.3181L21.4049 28.3251H20.7219L20.7749 29.0081H1.02792L2.68192 9.19209H6.11492V11.9571C5.70019 12.0417 5.33166 12.2773 5.08078 12.6182C4.82989 12.9592 4.71454 13.3811 4.75707 13.8022C4.7996 14.2234 4.99699 14.6137 5.31097 14.8976C5.62494 15.1814 6.03314 15.3386 6.45642 15.3386C6.8797 15.3386 7.2879 15.1814 7.60188 14.8976C7.91586 14.6137 8.11325 14.2234 8.15578 13.8022C8.19831 13.3811 8.08295 12.9592 7.83207 12.6182C7.58118 12.2773 7.21265 12.0417 6.79792 11.9571V9.19209H14.9979V11.2421H15.6809V9.19209H19.1179L19.2889 11.2421H19.9829L19.7829 8.81809C19.7724 8.73405 19.7321 8.65656 19.6694 8.59968C19.6066 8.5428 19.5256 8.5103 19.4409 8.50809H15.6829V5.09209C15.6833 4.46395 15.5599 3.84189 15.3197 3.26148C15.0796 2.68106 14.7274 2.15368 14.2832 1.70947C13.8391 1.26526 13.3118 0.912941 12.7315 0.672654C12.1511 0.432367 11.5291 0.308823 10.9009 0.309086V0.309086ZM10.9009 0.992086C11.44 0.989837 11.9741 1.09435 12.4726 1.2996C12.971 1.50485 13.4239 1.80676 13.8051 2.18793C14.1862 2.5691 14.4882 3.02198 14.6934 3.52043C14.8987 4.01888 15.0032 4.55304 15.0009 5.09209V8.50909H6.80092V5.09209C6.79867 4.55304 6.90319 4.01888 7.10843 3.52043C7.31368 3.02198 7.6156 2.5691 7.99677 2.18793C8.37794 1.80676 8.83081 1.50485 9.32926 1.2996C9.82771 1.09435 10.3619 0.989837 10.9009 0.992086V0.992086ZM6.46092 12.6091C6.66365 12.6091 6.86182 12.6692 7.03038 12.7818C7.19894 12.8945 7.33032 13.0545 7.4079 13.2418C7.48548 13.4291 7.50578 13.6352 7.46623 13.8341C7.42668 14.0329 7.32905 14.2155 7.18571 14.3589C7.04236 14.5022 6.85972 14.5998 6.66089 14.6394C6.46206 14.6789 6.25597 14.6586 6.06867 14.5811C5.88138 14.5035 5.72129 14.3721 5.60867 14.2035C5.49604 14.035 5.43592 13.8368 5.43592 13.6341C5.43526 13.4993 5.46132 13.3657 5.5126 13.2411C5.56387 13.1164 5.63935 13.0031 5.73466 12.9078C5.82997 12.8125 5.94323 12.737 6.06789 12.6858C6.19255 12.6345 6.32613 12.6084 6.46092 12.6091ZM13.2919 12.2351L11.9259 27.2681C11.9235 27.3152 11.9305 27.3623 11.9464 27.4066C11.9623 27.451 11.9869 27.4918 12.0187 27.5266C12.0506 27.5614 12.089 27.5895 12.1317 27.6093C12.1745 27.6292 12.2208 27.6403 12.2679 27.6421H27.2969C27.344 27.6402 27.3902 27.6289 27.4329 27.6091C27.4756 27.5892 27.514 27.5611 27.5458 27.5263C27.5776 27.4915 27.6022 27.4508 27.6182 27.4065C27.6342 27.3622 27.6412 27.3151 27.6389 27.2681L26.2719 12.2351C26.2614 12.151 26.2211 12.0736 26.1584 12.0167C26.0956 11.9598 26.0146 11.9273 25.9299 11.9251H13.6299C13.545 11.9265 13.4635 11.9587 13.4006 12.0157C13.3377 12.0728 13.2976 12.1507 13.2879 12.2351H13.2919ZM13.9429 12.6091H25.6209L26.9209 26.9591H12.6409L13.9429 12.6091ZM16.3659 13.9761C16.2752 13.9761 16.1882 14.0121 16.1241 14.0763C16.06 14.1404 16.0239 14.2274 16.0239 14.3181V15.6851C16.0239 16.6816 16.4198 17.6374 17.1245 18.342C17.8291 19.0467 18.7849 19.4426 19.7814 19.4426C20.778 19.4426 21.7337 19.0467 22.4384 18.342C23.143 17.6374 23.5389 16.6816 23.5389 15.6851V14.3171C23.5414 14.2707 23.5345 14.2243 23.5184 14.1806C23.5024 14.137 23.4777 14.0971 23.4457 14.0634C23.4137 14.0297 23.3752 14.0028 23.3326 13.9844C23.2899 13.9661 23.2439 13.9566 23.1974 13.9566C23.151 13.9566 23.105 13.9661 23.0623 13.9844C23.0196 14.0028 22.9811 14.0297 22.9491 14.0634C22.9172 14.0971 22.8924 14.137 22.8764 14.1806C22.8604 14.2243 22.8534 14.2707 22.8559 14.3171V15.6841C22.8559 16.4994 22.5321 17.2812 21.9556 17.8577C21.3791 18.4342 20.5972 18.7581 19.7819 18.7581C18.9666 18.7581 18.1848 18.4342 17.6083 17.8577C17.0318 17.2812 16.7079 16.4994 16.7079 15.6841V14.3171C16.7079 14.2264 16.6719 14.1394 16.6078 14.0753C16.5436 14.0111 16.4566 13.9751 16.3659 13.9751V13.9761Z" fill="white"/>
<path d="M0.601447 30C0.518341 29.9983 0.436445 29.9797 0.360723 29.9455C0.285001 29.9112 0.21703 29.8619 0.160929 29.8005C0.104828 29.7392 0.0617655 29.6671 0.0343517 29.5886C0.00693784 29.5102 -0.0042563 29.4269 0.00144705 29.344L1.71545 8.775C1.72896 8.62541 1.7981 8.48632 1.90919 8.38523C2.02028 8.28414 2.16525 8.22839 2.31545 8.229H5.83345V5.057C5.83345 3.7158 6.36624 2.42953 7.31461 1.48116C8.26298 0.53279 9.54925 0 10.8904 0C12.2316 0 13.5179 0.53279 14.4663 1.48116C15.4147 2.42953 15.9474 3.7158 15.9474 5.057V8.228H19.4644C19.6136 8.23 19.7568 8.28638 19.8673 8.38655C19.9778 8.48673 20.0479 8.62379 20.0644 8.772L20.2914 11.485H19.0744L18.9034 9.428H15.9464V11.485H14.7464V9.429H7.03245V11.75C7.48026 11.8931 7.86217 12.1916 8.10925 12.5915C8.35634 12.9915 8.45234 13.4666 8.37992 13.9311C8.3075 14.3956 8.07143 14.8189 7.71432 15.1247C7.35721 15.4304 6.90257 15.5985 6.43245 15.5985C5.96233 15.5985 5.50769 15.4304 5.15057 15.1247C4.79346 14.8189 4.55739 14.3956 4.48497 13.9311C4.41255 13.4666 4.50855 12.9915 4.75564 12.5915C5.00273 12.1916 5.38464 11.8931 5.83245 11.75V9.43H2.87545L1.25645 28.8H20.5224L20.4684 28.114H21.6684L21.7744 29.346C21.7797 29.4287 21.7682 29.5117 21.7406 29.5899C21.713 29.668 21.6699 29.7398 21.6139 29.8009C21.5578 29.862 21.49 29.9111 21.4145 29.9453C21.339 29.9796 21.2573 29.9981 21.1744 30H0.601447ZM2.31845 8.743C2.30712 8.74273 2.29585 8.74473 2.2853 8.74889C2.27476 8.75304 2.26515 8.75926 2.25705 8.76718C2.24894 8.7751 2.2425 8.78456 2.2381 8.795C2.23371 8.80545 2.23144 8.81667 2.23145 8.828L0.517447 29.389C0.517427 29.4009 0.519807 29.4127 0.524446 29.4237C0.529084 29.4347 0.535886 29.4447 0.544447 29.453C0.559009 29.4707 0.579748 29.4821 0.602447 29.485H21.1754C21.1989 29.482 21.2204 29.4702 21.2354 29.452C21.2516 29.4358 21.261 29.4139 21.2614 29.391L21.1964 28.628H21.0244L21.0774 29.314H0.699447L2.39945 8.914H6.34645V12.156L6.14145 12.198C5.78762 12.2701 5.47318 12.4711 5.2591 12.7619C5.04502 13.0527 4.94656 13.4126 4.9828 13.7719C5.01905 14.1312 5.18742 14.4642 5.45526 14.7064C5.72311 14.9486 6.07134 15.0826 6.43245 15.0826C6.79355 15.0826 7.14179 14.9486 7.40963 14.7064C7.67748 14.4642 7.84585 14.1312 7.88209 13.7719C7.91833 13.4126 7.81987 13.0527 7.60579 12.7619C7.39171 12.4711 7.07727 12.2701 6.72345 12.198L6.51845 12.156V8.914H15.2564V10.971H15.4274V8.914H19.3764L19.5474 10.971H19.7274L19.5474 8.817C19.5425 8.79737 19.5318 8.77968 19.5166 8.76629C19.5014 8.7529 19.4825 8.74443 19.4624 8.742H15.4324V5.057C15.4324 3.85212 14.9538 2.69659 14.1018 1.84461C13.2499 0.992636 12.0943 0.514 10.8894 0.514C9.68457 0.514 8.52904 0.992636 7.67706 1.84461C6.82508 2.69659 6.34645 3.85212 6.34645 5.057V8.743H2.31845ZM12.2584 27.943C12.1753 27.9413 12.0934 27.9227 12.0177 27.8885C11.942 27.8542 11.874 27.8049 11.8179 27.7435C11.7618 27.6822 11.7188 27.6101 11.6914 27.5316C11.6639 27.4532 11.6527 27.3699 11.6584 27.287L13.0324 12.187C13.0504 12.0424 13.1204 11.9093 13.2293 11.8125C13.3383 11.7157 13.4787 11.6618 13.6244 11.661H25.9744C26.1236 11.663 26.2668 11.7194 26.3773 11.8196C26.4878 11.9197 26.5579 12.0568 26.5744 12.205L27.9454 27.291C27.951 27.3739 27.9397 27.4571 27.9122 27.5355C27.8848 27.6139 27.8417 27.6859 27.7856 27.7472C27.7296 27.8085 27.6616 27.8578 27.586 27.8922C27.5103 27.9265 27.4285 27.9452 27.3454 27.947H12.2564L12.2584 27.943ZM13.5444 12.26L12.1744 27.334C12.1753 27.3573 12.1843 27.3795 12.1998 27.3968C12.2154 27.4141 12.2364 27.4255 12.2594 27.429H27.3464C27.3699 27.426 27.3914 27.4142 27.4064 27.396C27.4226 27.3798 27.432 27.3579 27.4324 27.335L26.0614 12.25C26.0569 12.23 26.0463 12.2119 26.0311 12.1981C26.0159 12.1843 25.9968 12.1756 25.9764 12.173H13.6324C13.5754 12.172 13.5564 12.218 13.5444 12.26ZM27.2534 27.26H12.3564L13.7104 12.346H25.8994L27.2534 27.26ZM12.9174 26.746H26.6904L25.4304 12.86H14.1774L12.9174 26.746ZM19.8034 19.717C18.7352 19.7159 17.711 19.2911 16.9557 18.5358C16.2003 17.7804 15.7755 16.7562 15.7744 15.688V14.314C15.7744 14.1549 15.8377 14.0023 15.9502 13.8897C16.0627 13.7772 16.2153 13.714 16.3744 13.714C16.5336 13.714 16.6862 13.7772 16.7987 13.8897C16.9112 14.0023 16.9744 14.1549 16.9744 14.314V15.685C16.9674 16.0609 17.0353 16.4345 17.1743 16.7838C17.3133 17.1332 17.5205 17.4513 17.7838 17.7197C18.0472 17.988 18.3614 18.2012 18.7081 18.3467C19.0547 18.4922 19.427 18.5672 19.8029 18.5672C20.1789 18.5672 20.5511 18.4922 20.8978 18.3467C21.2445 18.2012 21.5587 17.988 21.8221 17.7197C22.0854 17.4513 22.2926 17.1332 22.4316 16.7838C22.5706 16.4345 22.6385 16.0609 22.6314 15.685V14.314C22.6314 14.1549 22.6947 14.0023 22.8072 13.8897C22.9197 13.7772 23.0723 13.714 23.2314 13.714C23.3906 13.714 23.5432 13.7772 23.6557 13.8897C23.7682 14.0023 23.8314 14.1549 23.8314 14.314V15.685C23.8304 16.7531 23.4057 17.7771 22.6506 18.5324C21.8954 19.2877 20.8715 19.7127 19.8034 19.714V19.717ZM16.3744 14.231C16.3516 14.231 16.3298 14.2401 16.3136 14.2562C16.2975 14.2723 16.2884 14.2942 16.2884 14.317V15.688C16.2884 16.6201 16.6587 17.514 17.3178 18.1731C17.9769 18.8322 18.8708 19.2025 19.8029 19.2025C20.735 19.2025 21.629 18.8322 22.2881 18.1731C22.9472 17.514 23.3174 16.6201 23.3174 15.688V14.314C23.3174 14.219 23.1464 14.219 23.1464 14.314V15.685C23.1464 16.5716 22.7942 17.4219 22.1673 18.0489C21.5404 18.6758 20.6901 19.028 19.8034 19.028C18.9168 19.028 18.0665 18.6758 17.4396 18.0489C16.8127 17.4219 16.4604 16.5716 16.4604 15.685V14.314C16.4602 14.2915 16.4511 14.2701 16.4353 14.2542C16.4194 14.2383 16.3979 14.2293 16.3754 14.229L16.3744 14.231ZM6.43145 14.917C6.1771 14.917 5.92847 14.8416 5.71698 14.7003C5.5055 14.559 5.34067 14.3581 5.24334 14.1231C5.146 13.8881 5.12054 13.6296 5.17016 13.3801C5.21978 13.1307 5.34226 12.9015 5.52211 12.7217C5.70196 12.5418 5.9311 12.4193 6.18056 12.3697C6.43002 12.3201 6.68859 12.3456 6.92358 12.4429C7.15856 12.5402 7.35941 12.7051 7.50072 12.9165C7.64203 13.128 7.71745 13.3767 7.71745 13.631C7.71639 13.9713 7.5806 14.2973 7.33979 14.5378C7.09898 14.7782 6.77274 14.9135 6.43245 14.914L6.43145 14.917ZM6.43145 12.86C6.27896 12.86 6.12989 12.9052 6.0031 12.9899C5.87631 13.0747 5.77749 13.1951 5.71914 13.336C5.66078 13.4768 5.64551 13.6319 5.67526 13.7814C5.70501 13.931 5.77844 14.0684 5.88627 14.1762C5.99409 14.284 6.13147 14.3574 6.28103 14.3872C6.43059 14.4169 6.58561 14.4017 6.7265 14.3433C6.86738 14.285 6.98779 14.1861 7.07251 14.0593C7.15723 13.9326 7.20245 13.7835 7.20245 13.631C7.20392 13.5293 7.18504 13.4283 7.14691 13.334C7.10879 13.2397 7.05219 13.154 6.98045 13.0818C6.9087 13.0097 6.82327 12.9527 6.72916 12.9141C6.63505 12.8755 6.53417 12.8561 6.43245 12.857L6.43145 12.86ZM15.2564 8.743H6.51845V5.057C6.51845 3.89761 6.97902 2.7857 7.79883 1.96588C8.61865 1.14607 9.73055 0.6855 10.8899 0.6855C12.0493 0.6855 13.1612 1.14607 13.9811 1.96588C14.8009 2.7857 15.2614 3.89761 15.2614 5.057L15.2564 8.743ZM7.02745 8.229H14.7464V5.057C14.7464 4.03406 14.3401 3.05302 13.6168 2.32969C12.8934 1.60636 11.9124 1.2 10.8894 1.2C9.86651 1.2 8.88546 1.60636 8.16214 2.32969C7.43881 3.05302 7.03245 4.03406 7.03245 5.057L7.02745 8.229Z" fill="white"/>
</svg>
